<svg height="512pt" viewBox="0 -65 512.00078 512" width="512pt" xmlns="http://www.w3.org/2000/svg"><path d="m377.414062 131.773438-77.28125-11.230469-34.5625-70.027344c-3.914062-7.933594-15.226562-7.933594-19.140624 0l-34.5625 70.027344-77.28125 11.230469c-8.757813 1.273437-12.253907 12.03125-5.917969 18.207031l55.921875 54.511719-13.203125 76.96875c-1.496094 8.722656 7.65625 15.371093 15.488281 11.253906l69.125-36.339844 69.121094 36.339844c7.832031 4.117187 16.984375-2.535156 15.488281-11.253906l-13.203125-76.96875 55.921875-54.511719c6.339844-6.175781 2.84375-16.933594-5.914063-18.207031zm0 0" fill="#ffcd38"/><path d="m429.578125 370.679688c-4.183594-11.445313-14.894531-20.71875-28.738281-23.351563-13.847656-2.628906-27.210938 2.070313-35.304688 11.183594 4.1875 11.445312 14.894532 20.71875 28.742188 23.351562 13.84375 2.628907 27.207031-2.070312 35.300781-11.183593zm0 0" fill="#00ad94"/><path d="m377.707031 294.46875c-11.445312 4.183594-20.71875 14.894531-23.351562 28.738281-2.632813 13.847657 2.066406 27.210938 11.179687 35.304688 11.449219-4.1875 20.722656-14.894531 23.351563-28.738281 2.632812-13.847657-2.066407-27.210938-11.179688-35.304688zm0 0" fill="#3ac7b4"/><path d="m488.589844 289.777344c-9.46875-7.671875-23.421875-10.125-36.652344-5.265625-13.230469 4.855469-22.28125 15.753906-24.539062 27.730469 9.472656 7.667968 23.425781 10.125 36.652343 5.265624 13.234375-4.855468 22.28125-15.753906 24.539063-27.730468zm0 0" fill="#00ad94"/><path d="m404.929688 251.050781c-7.667969 9.472657-10.121094 23.425781-5.261719 36.652344 4.855469 13.230469 15.753906 22.28125 27.730469 24.539063 7.671874-9.46875 10.125-23.421876 5.265624-36.652344-4.855468-13.230469-15.757812-22.28125-27.734374-24.539063zm0 0" fill="#3ac7b4"/><path d="m508.71875 183.800781c-12.171875-.625-24.894531 5.605469-32.730469 17.320313-7.835937 11.714844-8.734375 25.851562-3.511719 36.863281 12.171876.625 24.894532-5.605469 32.730469-17.320313 7.835938-11.714843 8.734375-25.851562 3.511719-36.863281zm0 0" fill="#00ad94"/><path d="m418.292969 201.742188c-.625 12.171874 5.605469 24.894531 17.320312 32.730468 11.714844 7.835938 25.851563 8.734375 36.863281 3.511719.625-12.171875-5.605468-24.894531-17.320312-32.730469-11.714844-7.835937-25.851562-8.734375-36.863281-3.511718zm0 0" fill="#3ac7b4"/><path d="m490.175781 84.882812c-11.222656 4.753907-19.945312 15.914063-21.878906 29.875-1.9375 13.960938 3.429687 27.074219 12.9375 34.695313 11.222656-4.753906 19.945313-15.910156 21.878906-29.871094 1.933594-13.960937-3.429687-27.074219-12.9375-34.699219zm0 0" fill="#00ad94"/><path d="m416.664062 140.511719c4.753907 11.222656 15.914063 19.949219 29.875 21.882812 13.960938 1.933594 27.070313-3.433593 34.695313-12.941406-4.753906-11.21875-15.914063-19.945313-29.875-21.878906-13.960937-1.933594-27.070313 3.429687-34.695313 12.9375zm0 0" fill="#3ac7b4"/><path d="m445.613281 0c-9.128906 8.074219-13.855469 21.429688-11.25 35.28125s11.855469 24.574219 23.296875 28.785156c9.128906-8.074218 13.855469-21.429687 11.25-35.28125-2.605468-13.851562-11.859375-24.578125-23.296875-28.785156zm0 0" fill="#00ad94"/><path d="m393.59375 76.109375c8.074219 9.128906 21.429688 13.855469 35.277344 11.25 13.851562-2.601563 24.578125-11.855469 28.789062-23.292969-8.074218-9.128906-21.429687-13.855468-35.28125-11.253906-13.851562 2.605469-24.578125 11.859375-28.785156 23.296875zm0 0" fill="#3ac7b4"/><path d="m82.421875 370.679688c4.1875-11.445313 14.894531-20.71875 28.738281-23.351563 13.847656-2.628906 27.210938 2.070313 35.304688 11.183594-4.183594 11.445312-14.894532 20.71875-28.738282 23.351562-13.847656 2.628907-27.210937-2.070312-35.304687-11.183593zm0 0" fill="#00ad94"/><path d="m134.292969 294.46875c11.445312 4.183594 20.722656 14.894531 23.351562 28.738281 2.632813 13.847657-2.066406 27.210938-11.179687 35.304688-11.449219-4.1875-20.722656-14.894531-23.355469-28.738281-2.628906-13.847657 2.070313-27.210938 11.183594-35.304688zm0 0" fill="#3ac7b4"/><path d="m23.410156 289.777344c9.46875-7.671875 23.421875-10.125 36.652344-5.265625 13.230469 4.855469 22.28125 15.753906 24.539062 27.730469-9.472656 7.667968-23.425781 10.125-36.652343 5.265624-13.230469-4.855468-22.28125-15.753906-24.539063-27.730468zm0 0" fill="#00ad94"/><path d="m107.070312 251.050781c7.667969 9.472657 10.121094 23.425781 5.265626 36.652344-4.859376 13.230469-15.757813 22.28125-27.734376 24.539063-7.667968-9.46875-10.125-23.421876-5.265624-36.652344 4.859374-13.230469 15.757812-22.28125 27.734374-24.539063zm0 0" fill="#3ac7b4"/><path d="m3.28125 183.800781c12.171875-.625 24.894531 5.605469 32.730469 17.320313 7.835937 11.714844 8.734375 25.851562 3.511719 36.863281-12.171876.625-24.894532-5.605469-32.730469-17.320313-7.835938-11.714843-8.734375-25.851562-3.511719-36.863281zm0 0" fill="#00ad94"/><path d="m93.707031 201.742188c.625 12.171874-5.605469 24.894531-17.320312 32.730468-11.714844 7.835938-25.851563 8.734375-36.863281 3.511719-.625-12.171875 5.605468-24.894531 17.320312-32.730469 11.714844-7.835937 25.851562-8.734375 36.863281-3.511718zm0 0" fill="#3ac7b4"/><path d="m21.824219 84.882812c11.222656 4.753907 19.949219 15.914063 21.882812 29.875 1.933594 13.960938-3.433593 27.074219-12.941406 34.695313-11.21875-4.753906-19.945313-15.910156-21.878906-29.871094-1.933594-13.960937 3.429687-27.074219 12.9375-34.699219zm0 0" fill="#00ad94"/><path d="m95.335938 140.511719c-4.753907 11.222656-15.910157 19.949219-29.871094 21.882812-13.960938 1.933594-27.074219-3.433593-34.699219-12.941406 4.753906-11.21875 15.914063-19.945313 29.875-21.878906 13.960937-1.933594 27.070313 3.429687 34.695313 12.9375zm0 0" fill="#3ac7b4"/><path d="m66.386719 0c9.128906 8.074219 13.855469 21.429688 11.25 35.28125-2.601563 13.847656-11.855469 24.574219-23.292969 28.785156-9.128906-8.074218-13.855469-21.429687-11.253906-35.28125 2.605468-13.851562 11.859375-24.578125 23.296875-28.785156zm0 0" fill="#00ad94"/><path d="m118.40625 76.109375c-8.074219 9.128906-21.425781 13.855469-35.277344 11.25-13.851562-2.601563-24.578125-11.855469-28.785156-23.292969 8.070312-9.128906 21.425781-13.855468 35.277344-11.253906 13.851562 2.605469 24.578125 11.859375 28.785156 23.296875zm0 0" fill="#3ac7b4"/><g fill="#3a484a"><path d="m205.71875 180.921875c-4.265625 0-7.726562-3.457031-7.726562-7.726563v-9.097656c0-4.269531 3.460937-7.726562 7.726562-7.726562 4.269531 0 7.726562 3.457031 7.726562 7.726562v9.097656c0 4.269532-3.457031 7.726563-7.726562 7.726563zm0 0"/><path d="m306.28125 180.921875c-4.269531 0-7.726562-3.457031-7.726562-7.726563v-9.097656c0-4.269531 3.457031-7.726562 7.726562-7.726562s7.726562 3.457031 7.726562 7.726562v9.097656c0 4.269532-3.460937 7.726563-7.726562 7.726563zm0 0"/><path d="m256 185.78125c-7.066406 0-13.710938-2.964844-18.226562-8.132812-2.808594-3.210938-2.480469-8.09375.730468-10.902344 3.210938-2.808594 8.09375-2.480469 10.902344.730468 1.585938 1.8125 3.988281 2.851563 6.59375 2.851563s5.011719-1.039063 6.59375-2.851563c2.808594-3.210937 7.6875-3.539062 10.902344-.730468 3.210937 2.808594 3.539062 7.6875.730468 10.902344-4.515624 5.167968-11.160156 8.132812-18.226562 8.132812zm0 0"/></g></svg>